HIERARCHY
ROOT Pelvis
{
	OFFSET 0.000000 0.000000 0.000000
	CHANNELS 6 Xposition Yposition Zposition Zrotation Yrotation Xrotation 
	JOINT Left_hip
	{
		OFFSET 0.070241 -0.085575 -0.010474
		CHANNELS 3 Zrotation Yrotation Xrotation
		JOINT Left_knee
		{
			OFFSET 0.032125 -0.356873 -0.000555
			CHANNELS 3 Zrotation Yrotation Xrotation
			JOINT Left_ankle
			{
				OFFSET -0.010961 -0.370212 -0.042278
				CHANNELS 3 Zrotation Yrotation Xrotation
				JOINT Left_foot
				{
					OFFSET 0.023322 -0.052281 0.110104
					CHANNELS 3 Zrotation Yrotation Xrotation
					End Site
					{
						OFFSET 0.000000 0.000000 0.000000
					}
				}
			}
		}
	}
	JOINT Right_hip
	{
		OFFSET -0.068518 -0.084320 -0.007402
		CHANNELS 3 Zrotation Yrotation Xrotation
		JOINT Right_knee
		{
			OFFSET -0.037345 -0.364815 -0.003619
			CHANNELS 3 Zrotation Yrotation Xrotation
			JOINT Right_ankle
			{
				OFFSET 0.013394 -0.370006 -0.039954
				CHANNELS 3 Zrotation Yrotation Xrotation
				JOINT Right_foot
				{
					OFFSET -0.019600 -0.045455 0.113223
					CHANNELS 3 Zrotation Yrotation Xrotation
					End Site
					{
						OFFSET 0.000000 0.000000 0.000000
					}
				}
			}
		}
	}
	JOINT Spine1
	{
		OFFSET -0.002404 0.098129 -0.018169
		CHANNELS 3 Zrotation Yrotation Xrotation
		JOINT Spine2
		{
			OFFSET 0.003989 0.127209 -0.001742
			CHANNELS 3 Zrotation Yrotation Xrotation
			JOINT Spine3
			{
				OFFSET 0.001758 0.046641 0.023475
				CHANNELS 3 Zrotation Yrotation Xrotation
				JOINT Neck
				{
					OFFSET -0.003759 0.194901 -0.039982
					CHANNELS 3 Zrotation Yrotation Xrotation
					JOINT Head
					{
						OFFSET 0.003999 0.063756 0.047665
						CHANNELS 3 Zrotation Yrotation Xrotation
						End Site
						{
							OFFSET 0.000000 0.000000 0.000000
						}
					}
				}
				JOINT Left_collar
				{
					OFFSET 0.071816 0.109048 -0.028973
					CHANNELS 3 Zrotation Yrotation Xrotation
					JOINT Left_shoulder
					{
						OFFSET 0.084027 0.032269 -0.006525
						CHANNELS 3 Zrotation Yrotation Xrotation
						JOINT Left_elbow
						{
							OFFSET 0.243854 -0.013992 -0.025905
							CHANNELS 3 Zrotation Yrotation Xrotation
							JOINT Left_wrist
							{
								OFFSET 0.232156 0.008196 -0.000339
								CHANNELS 3 Zrotation Yrotation Xrotation
								JOINT Left_palm
								{
									OFFSET 0.075377 -0.009461 -0.012494
									CHANNELS 3 Zrotation Yrotation Xrotation
									End Site
									{
										OFFSET 0.000000 0.000000 0.000000
									}
								}
							}
						}
					}
				}
				JOINT Right_collar
				{
					OFFSET -0.073768 0.107001 -0.033755
					CHANNELS 3 Zrotation Yrotation Xrotation
					JOINT Right_shoulder
					{
						OFFSET -0.086837 0.032868 -0.009431
						CHANNELS 3 Zrotation Yrotation Xrotation
						JOINT Right_elbow
						{
							OFFSET -0.236446 -0.012544 -0.018747
							CHANNELS 3 Zrotation Yrotation Xrotation
							JOINT Right_wrist
							{
								OFFSET -0.236110 0.006124 -0.004327
								CHANNELS 3 Zrotation Yrotation Xrotation
								JOINT Right_palm
								{
									OFFSET -0.074800 -0.006875 -0.009610
									CHANNELS 3 Zrotation Yrotation Xrotation
									End Site
									{
										OFFSET 0.000000 0.000000 0.000000
									}
								}
							}
						}
					}
				}
			}
		}
	}
}
MOTION
Frames: 9
Frame Time: 0.100000
0.000000 0.000000 0.000000 177.406623 18.083975 -6.098441 3.479463 6.988029 -2.145107 0.165208 -3.200165 -4.045297 -3.124045 22.846011 -1.168535 8.011336 -3.896123 -2.003069 0.161767 -5.330477 -1.964101 -1.458219 4.914402 -2.874634 1.641678 -21.542143 -3.491464 2.980200 6.295904 7.159047 -0.800586 1.684047 -0.975131 1.300742 -1.477331 -10.302287 -1.396899 1.342019 1.303926 0.505699 -2.103157 11.473407 0.899390 -0.303826 14.029348 -2.411308 23.043754 -12.221776 -1.469696 -14.739751 -10.564604 6.070029 3.583317 -3.307008 -3.658576 -4.220131 26.057055 0.173475 -5.838767 0.759297 8.016406 -17.415770 -10.574732 2.676234 11.465809 -12.962470 -12.753123 2.315476 -6.394743 -1.291449 2.816529 23.910171 5.757368 7.562991 -1.364064 
0.000134 -0.000717 0.000773 177.095413 17.438037 -5.973997 3.816445 6.994015 -2.140530 0.266001 -2.951705 -4.163725 -2.639547 23.026910 -0.940223 6.965560 -3.853942 -2.547401 0.564174 -5.263845 -2.142687 -1.444602 5.228746 -3.045414 2.132119 -21.666402 -3.405413 2.574114 6.945315 7.672753 -1.212275 1.857361 -0.642948 1.331609 -0.839711 -10.707379 -1.461151 1.385376 2.376517 2.414157 -3.429240 13.169152 1.577996 -2.234782 14.779036 -1.841132 27.919662 -12.254065 -3.113098 -13.206432 -10.861513 7.418595 1.337897 -5.973751 -3.666542 -4.235743 24.010985 -0.333205 -5.606927 0.541883 7.489787 -21.620844 -10.176104 5.727876 9.265387 -12.079122 -13.659842 0.961600 -6.581590 -0.764531 2.308211 21.681996 5.418395 7.601548 -0.829829 
-0.001293 -0.001259 0.000611 177.252561 17.041089 -5.554663 3.594222 6.904384 -2.431369 0.270595 -2.626497 -4.170345 -2.198485 22.983174 -0.783957 5.976530 -3.664384 -2.293348 0.466448 -5.223755 -2.467032 -1.563840 5.399749 -3.234528 2.583333 -21.608270 -3.395638 2.007336 6.926947 7.989512 -0.829697 1.877095 -0.313874 0.895452 -0.548724 -11.699479 -1.691492 1.451761 3.150214 2.203060 -4.625548 14.918674 1.364744 -3.416164 14.880800 -1.391105 30.101722 -12.981316 -4.959869 -12.472340 -11.456470 8.066648 5.691800 -8.625010 -4.908322 -3.276058 23.849919 0.412647 -5.358512 0.904508 6.325370 -23.858686 -10.314230 6.826240 7.806733 -12.157670 -14.193125 -1.383676 -6.312083 0.554104 1.503214 22.249985 4.890581 7.537556 -1.144614 
-0.002696 -0.001046 -0.000710 177.567932 16.895090 -5.356518 3.212825 6.900046 -2.640427 0.204389 -2.250477 -4.032110 -2.189525 22.747962 -0.905147 5.908701 -3.493952 -1.907770 0.141730 -5.153129 -2.763400 -1.649326 5.331382 -3.043515 2.495403 -21.345536 -3.479156 2.188220 6.677504 8.239646 -0.318450 1.761899 -0.283834 0.533513 -0.617846 -11.867119 -1.985355 1.532432 3.053887 1.443703 -4.905285 16.022155 0.875172 -3.106119 15.403696 -2.371417 29.822879 -13.744149 -5.793441 -12.575766 -11.022099 8.145669 7.178221 -9.300953 -5.270822 -3.148786 24.133328 0.517005 -5.498683 1.077832 6.357456 -23.793315 -10.520935 6.193317 7.792457 -12.157278 -14.067086 -1.670015 -6.214965 0.962061 1.440727 23.397975 4.928533 7.675158 -1.626671 
-0.003092 -0.000457 -0.001744 177.754416 16.577526 -5.472281 3.063916 6.979357 -2.559713 0.167411 -1.871727 -3.906048 -2.490523 22.714803 -1.214017 6.623095 -3.559638 -1.587117 -0.055842 -5.090425 -2.740237 -1.624738 5.249415 -3.042590 1.987275 -20.930139 -3.352294 3.090522 6.577341 8.616131 -0.185122 1.839539 -0.985813 0.572349 -0.780834 -11.014799 -2.208404 1.679286 2.282305 0.878477 -4.821496 17.379661 0.413809 -2.187102 17.713891 -4.076325 28.170902 -14.121180 -5.259128 -14.196174 -10.350398 7.691207 5.867370 -9.174048 -4.592459 -3.780290 24.144911 -0.042575 -5.806325 1.173601 7.805288 -22.125967 -10.863860 4.632291 9.627966 -12.376736 -13.361122 -2.261261 -7.289054 0.396320 1.615698 24.415938 5.275779 7.951101 -1.779139 
-0.002353 0.000315 -0.003280 177.792278 16.356588 -6.223118 3.157875 7.132683 -1.971006 0.144933 -1.763208 -3.678434 -2.755461 22.814318 -1.482842 7.439254 -3.624964 -1.474877 -0.127082 -5.099571 -2.251672 -1.528700 5.250676 -2.779566 1.468565 -20.657009 -3.350087 4.002893 6.628742 9.169682 -0.280894 2.021182 -1.713404 0.780482 -1.045873 -9.544690 -2.381187 1.790979 1.635746 0.382569 -4.864470 19.694087 0.049234 -1.290101 21.684186 -6.058760 25.931058 -14.222064 -4.166824 -16.449067 -10.486611 7.538035 4.352479 -9.830010 -3.491001 -3.987800 24.359287 -1.139347 -6.327976 1.081316 9.890728 -19.899683 -11.072211 3.453491 11.715683 -12.555655 -12.742825 -2.586643 -8.497984 -0.267131 1.499770 25.552104 5.935959 8.387604 -1.870906 
-0.001543 0.000986 -0.005060 177.755087 16.560508 -6.994223 3.287083 7.183084 -1.408649 0.090660 -1.873024 -3.573564 -2.855080 22.672263 -1.521469 7.891349 -3.390189 -1.408888 -0.192445 -5.221283 -1.674939 -1.444354 5.010466 -2.602725 1.138744 -20.424238 -3.381306 4.573310 6.390419 9.712611 -0.408506 2.125387 -2.267757 1.021159 -1.411627 -8.330908 -2.458136 1.774695 1.436222 0.049324 -4.747779 22.236546 -0.021034 -0.297174 25.227741 -7.531829 23.904890 -14.110241 -3.897183 -18.346767 -10.540765 7.400597 3.408773 -10.120277 -2.824286 -3.829242 24.517451 -2.140731 -6.709542 1.015184 11.421943 -18.263652 -11.181951 3.142654 13.047441 -12.421273 -12.375173 -1.161870 -8.940975 -0.363939 1.309326 26.458546 6.687856 8.699191 -2.033919 
-0.000992 0.001559 -0.007392 177.794398 16.748254 -7.398814 3.267725 7.201349 -1.199812 0.052276 -1.924975 -3.513391 -2.865605 22.484548 -1.380492 7.974422 -3.132299 -1.514980 -0.293209 -5.277015 -1.408128 -1.454709 4.831976 -2.543734 1.182018 -20.256229 -3.332694 4.391855 6.170048 9.593774 -0.335026 2.141579 -2.164772 1.032619 -1.630661 -7.704741 -2.387643 1.739113 1.496376 -0.101906 -4.221626 22.635375 0.141807 0.218866 25.188485 -7.713457 22.337367 -13.839872 -4.492898 -18.847536 -10.319624 7.072023 3.741609 -9.712331 -3.113560 -3.668431 24.903458 -2.435332 -6.785637 0.761121 11.444647 -16.996806 -10.900476 3.794813 13.377854 -11.944160 -12.055109 -0.078968 -8.287072 0.148722 1.318624 26.785115 6.956740 8.706261 -2.253232 
-0.000650 0.002142 -0.009779 177.861283 16.743476 -7.293644 3.149312 7.134119 -1.511640 0.055330 -1.860228 -3.424156 -2.807917 22.445892 -1.328651 7.975067 -3.028950 -1.323414 -0.360765 -5.293365 -1.631842 -1.449681 4.762128 -2.627791 1.134962 -20.151232 -3.159925 4.319753 6.032497 9.489503 -0.238516 2.244704 -2.034856 1.069087 -1.645772 -7.677876 -2.266697 1.791017 1.295075 -0.513552 -4.124732 21.896441 0.024275 0.289471 24.632235 -7.997317 21.157914 -13.799777 -4.464304 -18.997999 -10.315273 7.031824 4.710703 -9.872673 -2.778853 -3.391025 25.109173 -2.337411 -6.846433 0.775050 11.805765 -15.965820 -10.981724 3.612863 13.521735 -12.205178 -12.201999 0.123473 -8.918200 -0.280043 1.293440 26.971162 7.146690 8.704293 -2.491232 
